# Blender v2.79 (sub 0) OBJ File: 'wall_floor.blend'
# www.blender.org
mtllib wall_floor.mtl
o Cube
v 2.500000 0.000000 -2.500000
v 2.500000 0.000000 2.500000
v -2.500000 0.000000 2.500000
v -2.500000 0.000000 -2.500000
v 2.500000 0.500000 -2.500000
v 2.499999 0.500000 2.500000
v -2.500000 0.500000 2.500000
v -2.500000 0.500000 -2.500000
v -2.500000 0.500000 2.500000
v -2.500000 5.000000 2.500000
v -2.500000 0.500000 -2.500000
v -2.500000 5.000000 -2.500000
v -2.000000 0.500000 2.500000
v -2.000000 5.000000 2.500000
v -2.000000 0.500000 -2.500000
v -2.000000 5.000000 -2.500000
vt 1.000000 0.000000
vt 1.000000 1.000000
vt 0.000000 1.000000
vt 0.000000 0.000000
vt 1.000000 0.000000
vt 1.000000 1.000000
vt 0.000000 1.000000
vt 0.000000 0.000000
vt 1.000000 1.000000
vt 0.000000 1.000000
vt 0.000000 0.000000
vt 1.000000 0.000000
vt 1.000000 1.000000
vt 0.000000 0.000000
vt 1.000000 0.000000
vt 1.000000 1.000000
vt 0.000000 1.000000
vt 1.000000 1.000000
vt 0.000000 1.000000
vt 0.000000 0.000000
vt 1.000000 0.000000
vt 1.000000 1.000000
vt 0.000000 1.000000
vt 0.000000 0.000000
vt 1.000000 0.000000
vt 1.000000 1.000000
vt 0.000000 1.000000
vt 0.000000 0.000000
vt 1.000000 0.000000
vt 1.000000 1.000000
vt 0.000000 1.000000
vt 0.000000 0.000000
vt 1.000000 0.000000
vt 1.000000 1.000000
vt 0.000000 1.000000
vt 0.000000 0.000000
vt 1.000000 1.000000
vt 0.000000 1.000000
vt 1.000000 0.000000
vt 0.000000 0.000000
vn 0.0000 -1.0000 0.0000
vn 0.0000 1.0000 -0.0000
vn 1.0000 0.0000 0.0000
vn -0.0000 -0.0000 1.0000
vn -1.0000 -0.0000 -0.0000
vn 0.0000 0.0000 -1.0000
usemtl Material
s off
f 1/1/1 2/2/1 3/3/1 4/4/1
f 5/5/2 8/6/2 7/7/2 6/8/2
f 1/1/3 5/9/3 6/10/3 2/11/3
f 2/12/4 6/13/4 7/7/4 3/14/4
f 3/15/5 7/16/5 8/17/5 4/4/5
f 5/5/6 1/18/6 4/19/6 8/20/6
f 9/21/5 10/22/5 12/23/5 11/24/5
f 11/25/6 12/26/6 16/27/6 15/28/6
f 15/29/3 16/30/3 14/31/3 13/32/3
f 13/33/4 14/34/4 10/35/4 9/36/4
f 11/25/1 15/37/1 13/38/1 9/36/1
f 16/39/2 12/26/2 10/35/2 14/40/2
